<mxfile host="Electron" modified="2023-05-28T04:13:21.527Z" agent="Mozilla/5.0 (Windows NT 10.0; Win64; x64) AppleWebKit/537.36 (KHTML, like Gecko) draw.io/21.2.8 Chrome/112.0.5615.165 Electron/24.2.0 Safari/537.36" etag="APfdrUHlAhecWhM-0Ins" version="21.2.8" type="device">
  <diagram name="Page-1" id="USE9ztfEVQdWXoqkFXth">
    <mxGraphModel dx="792" dy="838" grid="1" gridSize="10" guides="1" tooltips="1" connect="1" arrows="1" fold="1" page="1" pageScale="1" pageWidth="850" pageHeight="1100" math="0" shadow="0">
      <root>
        <mxCell id="0" />
        <mxCell id="1" parent="0" />
        <mxCell id="97VnJTU3pzjPMiBbb2ja-19" value="Target Group" style="rounded=0;whiteSpace=wrap;html=1;verticalAlign=top;" parent="1" vertex="1">
          <mxGeometry x="850" y="550" width="300" height="101" as="geometry" />
        </mxCell>
        <mxCell id="97VnJTU3pzjPMiBbb2ja-1" style="edgeStyle=orthogonalEdgeStyle;rounded=0;orthogonalLoop=1;jettySize=auto;html=1;startArrow=classic;startFill=1;" parent="1" source="97VnJTU3pzjPMiBbb2ja-3" target="97VnJTU3pzjPMiBbb2ja-13" edge="1">
          <mxGeometry relative="1" as="geometry" />
        </mxCell>
        <mxCell id="97VnJTU3pzjPMiBbb2ja-3" value="" style="sketch=0;outlineConnect=0;fontColor=#232F3E;gradientColor=none;fillColor=#232F3D;strokeColor=none;dashed=0;verticalLabelPosition=bottom;verticalAlign=top;align=center;html=1;fontSize=12;fontStyle=0;aspect=fixed;pointerEvents=1;shape=mxgraph.aws4.client;" parent="1" vertex="1">
          <mxGeometry x="490" y="431" width="78" height="76" as="geometry" />
        </mxCell>
        <mxCell id="97VnJTU3pzjPMiBbb2ja-5" value="Cognito User Pools" style="sketch=0;points=[[0,0,0],[0.25,0,0],[0.5,0,0],[0.75,0,0],[1,0,0],[0,1,0],[0.25,1,0],[0.5,1,0],[0.75,1,0],[1,1,0],[0,0.25,0],[0,0.5,0],[0,0.75,0],[1,0.25,0],[1,0.5,0],[1,0.75,0]];outlineConnect=0;fontColor=#232F3E;gradientColor=#F54749;gradientDirection=north;fillColor=#C7131F;strokeColor=#ffffff;dashed=0;verticalLabelPosition=middle;verticalAlign=middle;align=left;html=1;fontSize=12;fontStyle=1;aspect=fixed;shape=mxgraph.aws4.resourceIcon;resIcon=mxgraph.aws4.cognito;labelPosition=right;spacingBottom=10;spacingLeft=10;" parent="1" vertex="1">
          <mxGeometry x="850" y="271" width="78" height="78" as="geometry" />
        </mxCell>
        <mxCell id="97VnJTU3pzjPMiBbb2ja-8" value="" style="sketch=0;points=[[0,0,0],[0.25,0,0],[0.5,0,0],[0.75,0,0],[1,0,0],[0,1,0],[0.25,1,0],[0.5,1,0],[0.75,1,0],[1,1,0],[0,0.25,0],[0,0.5,0],[0,0.75,0],[1,0.25,0],[1,0.5,0],[1,0.75,0]];outlineConnect=0;fontColor=#232F3E;gradientColor=#F78E04;gradientDirection=north;fillColor=#D05C17;strokeColor=#ffffff;dashed=0;verticalLabelPosition=bottom;verticalAlign=top;align=center;html=1;fontSize=12;fontStyle=0;aspect=fixed;shape=mxgraph.aws4.resourceIcon;resIcon=mxgraph.aws4.lambda;" parent="1" vertex="1">
          <mxGeometry x="866.25" y="576.25" width="63.75" height="63.75" as="geometry" />
        </mxCell>
        <mxCell id="97VnJTU3pzjPMiBbb2ja-10" value="Authenticate" style="text;html=1;align=center;verticalAlign=middle;resizable=0;points=[];autosize=1;strokeColor=none;fillColor=none;" parent="1" vertex="1">
          <mxGeometry x="740" y="280" width="90" height="30" as="geometry" />
        </mxCell>
        <mxCell id="97VnJTU3pzjPMiBbb2ja-11" value="Application Load Balancer +&lt;br&gt;Listeners and Rules" style="text;html=1;align=center;verticalAlign=middle;resizable=0;points=[];autosize=1;strokeColor=none;fillColor=none;" parent="1" vertex="1">
          <mxGeometry x="760" y="449" width="170" height="40" as="geometry" />
        </mxCell>
        <mxCell id="97VnJTU3pzjPMiBbb2ja-12" value=" CUP Integration with Application Load Balancer (ALB)" style="text;html=1;align=center;verticalAlign=middle;resizable=0;points=[];autosize=1;strokeColor=none;fillColor=none;fontSize=25;fontStyle=1" parent="1" vertex="1">
          <mxGeometry x="440" y="180" width="670" height="40" as="geometry" />
        </mxCell>
        <mxCell id="97VnJTU3pzjPMiBbb2ja-17" style="edgeStyle=orthogonalEdgeStyle;rounded=0;orthogonalLoop=1;jettySize=auto;html=1;entryX=0;entryY=0.5;entryDx=0;entryDy=0;entryPerimeter=0;" parent="1" source="97VnJTU3pzjPMiBbb2ja-13" target="97VnJTU3pzjPMiBbb2ja-5" edge="1">
          <mxGeometry relative="1" as="geometry">
            <Array as="points">
              <mxPoint x="721" y="310" />
              <mxPoint x="805" y="310" />
            </Array>
          </mxGeometry>
        </mxCell>
        <mxCell id="97VnJTU3pzjPMiBbb2ja-20" style="edgeStyle=orthogonalEdgeStyle;rounded=0;orthogonalLoop=1;jettySize=auto;html=1;" parent="1" source="97VnJTU3pzjPMiBbb2ja-13" target="97VnJTU3pzjPMiBbb2ja-19" edge="1">
          <mxGeometry relative="1" as="geometry">
            <Array as="points">
              <mxPoint x="721" y="600" />
            </Array>
          </mxGeometry>
        </mxCell>
        <mxCell id="97VnJTU3pzjPMiBbb2ja-13" value="" style="sketch=0;outlineConnect=0;fontColor=#232F3E;gradientColor=none;fillColor=#4D27AA;strokeColor=none;dashed=0;verticalLabelPosition=bottom;verticalAlign=top;align=center;html=1;fontSize=12;fontStyle=0;aspect=fixed;pointerEvents=1;shape=mxgraph.aws4.application_load_balancer;" parent="1" vertex="1">
          <mxGeometry x="682" y="430" width="78" height="78" as="geometry" />
        </mxCell>
        <mxCell id="97VnJTU3pzjPMiBbb2ja-21" value="" style="sketch=0;points=[[0,0,0],[0.25,0,0],[0.5,0,0],[0.75,0,0],[1,0,0],[0,1,0],[0.25,1,0],[0.5,1,0],[0.75,1,0],[1,1,0],[0,0.25,0],[0,0.5,0],[0,0.75,0],[1,0.25,0],[1,0.5,0],[1,0.75,0]];outlineConnect=0;fontColor=#232F3E;gradientColor=#F78E04;gradientDirection=north;fillColor=#D05C17;strokeColor=#ffffff;dashed=0;verticalLabelPosition=bottom;verticalAlign=top;align=center;html=1;fontSize=12;fontStyle=0;aspect=fixed;shape=mxgraph.aws4.resourceIcon;resIcon=mxgraph.aws4.ec2;" parent="1" vertex="1">
          <mxGeometry x="1074" y="576.25" width="60.87" height="60.87" as="geometry" />
        </mxCell>
        <mxCell id="97VnJTU3pzjPMiBbb2ja-22" value="" style="outlineConnect=0;dashed=0;verticalLabelPosition=bottom;verticalAlign=top;align=center;html=1;shape=mxgraph.aws3.ec2_compute_container_2;fillColor=#F58534;gradientColor=none;" parent="1" vertex="1">
          <mxGeometry x="948.83" y="576.25" width="110.87" height="63.75" as="geometry" />
        </mxCell>
      </root>
    </mxGraphModel>
  </diagram>
</mxfile>
